<?xml version="1.0" encoding="UTF-8"?>
<!-- Generator: CustomSymbols v2.5.2.37 by @serious_bret https://bretlester.com/app_content/CustomSymbols/ -->
<!-- Guides: Left/Right -0.002/-0.002 Cap/Base 0.0/0.0 -->
<!-- Settings: RefScale 1.0 Min/Max Stroke Scales 0.5/2.21 -->
<!DOCTYPE svg
PUBLIC "-//W3C//DTD SVG 1.1//EN"
       "http://www.w3.org/Graphics/SVG/1.1/DTD/svg11.dtd">
<svg version="1.1" xmlns="http://www.w3.org/2000/svg" xmlns:xlink="http://www.w3.org/1999/xlink" width="3300" height="2200">
<![CDATA[<?xml version="1.0" encoding="iso-8859-1"?>
<!-- Generator: Adobe Illustrator 19.0.0, SVG Export Plug-In . SVG Version: 6.00 Build 0)  -->
<svg version="1.1" id="Layer_1" xmlns="http://www.w3.org/2000/svg" xmlns:xlink="http://www.w3.org/1999/xlink" x="0px" y="0px"
	 viewBox="0 0 482.813 482.813" style="enable-background:new 0 0 482.813 482.813;" xml:space="preserve">
<g>
	<path d="M456.168,47.811L476.26,27.72L455.047,6.507l-20.08,20.08C413.075,9.352,386.22,0,357.923,0
		c-18.75,0-37.544,4.291-54.351,12.411l-191.291,92.432c-20.032,9.68-38.228,22.626-54.081,38.479
		c-77.54,77.539-77.54,203.705,0,281.244c37.562,37.562,87.502,58.248,140.622,58.248s103.061-20.686,140.622-58.247
		c15.852-15.851,28.798-34.047,38.479-54.082l92.433-191.292C491.239,135.966,485.282,84.936,456.168,47.811z M443.344,166.142
		l-92.432,191.291c-8.216,17.001-19.211,32.451-32.681,45.921c-31.896,31.895-74.303,49.46-119.409,49.46
		c-45.107,0-87.514-17.565-119.409-49.46c-65.842-65.842-65.842-172.976,0-238.818c13.471-13.471,28.921-24.466,45.92-32.681
		l191.291-92.432C329.385,33.258,343.665,30,357.923,30c25.337,0,49.155,9.864,67.067,27.776
		C453.506,86.292,460.881,129.841,443.344,166.142z"/>
	<path d="M198.822,180.444c-27.646,0-53.637,10.766-73.186,30.314c-40.355,40.354-40.355,106.017,0,146.371
		c19.548,19.549,45.54,30.315,73.186,30.315s53.637-10.766,73.186-30.315c40.354-40.354,40.354-106.017,0-146.372
		C252.459,191.21,226.468,180.444,198.822,180.444z M250.795,335.917c-13.882,13.882-32.34,21.528-51.973,21.528
		s-38.09-7.646-51.973-21.528c-28.658-28.658-28.658-75.288,0-103.945c13.882-13.882,32.34-21.527,51.973-21.527
		s38.09,7.646,51.973,21.527C279.452,260.629,279.452,307.259,250.795,335.917z"/>
</g>
<g>
</g>
<g>
</g>
<g>
</g>
<g>
</g>
<g>
</g>
<g>
</g>
<g>
</g>
<g>
</g>
<g>
</g>
<g>
</g>
<g>
</g>
<g>
</g>
<g>
</g>
<g>
</g>
<g>
</g>
</svg>
]]>
 <g id="Notes">
  <rect height="2200" id="artboard" style="fill:white;opacity:1" width="3300" x="0" y="0"/>
  <line id="" style="fill:none;stroke:black;opacity:1;stroke-width:0.5;" x1="263" x2="3036" y1="292" y2="292"/>
  <text id="reftext1" style="stroke:none;fill:black;font-family:-apple-system,&quot;SF Pro Display&quot;,&quot;SF Pro Text&quot;,Helvetica,sans-serif;font-weight:bold;" transform="matrix(1 0 0 1 263 322)">Weight/Scale Variations</text>
  <text id="reftext2" style="stroke:none;fill:black;font-family:-apple-system,&quot;SF Pro Display&quot;,&quot;SF Pro Text&quot;,Helvetica,sans-serif;text-anchor:middle;" transform="matrix(1 0 0 1 559.711 322)">Ultralight</text>
  <text style="stroke:none;fill:black;font-family:-apple-system,&quot;SF Pro Display&quot;,&quot;SF Pro Text&quot;,Helvetica,sans-serif;text-anchor:middle;" transform="matrix(1 0 0 1 856.422 322)">Thin</text>
  <text style="stroke:none;fill:black;font-family:-apple-system,&quot;SF Pro Display&quot;,&quot;SF Pro Text&quot;,Helvetica,sans-serif;text-anchor:middle;" transform="matrix(1 0 0 1 1153.13 322)">Light</text>
  <text style="stroke:none;fill:black;font-family:-apple-system,&quot;SF Pro Display&quot;,&quot;SF Pro Text&quot;,Helvetica,sans-serif;text-anchor:middle;" transform="matrix(1 0 0 1 1449.84 322)">Regular</text>
  <text style="stroke:none;fill:black;font-family:-apple-system,&quot;SF Pro Display&quot;,&quot;SF Pro Text&quot;,Helvetica,sans-serif;text-anchor:middle;" transform="matrix(1 0 0 1 1746.56 322)">Medium</text>
  <text style="stroke:none;fill:black;font-family:-apple-system,&quot;SF Pro Display&quot;,&quot;SF Pro Text&quot;,Helvetica,sans-serif;text-anchor:middle;" transform="matrix(1 0 0 1 2043.27 322)">Semibold</text>
  <text style="stroke:none;fill:black;font-family:-apple-system,&quot;SF Pro Display&quot;,&quot;SF Pro Text&quot;,Helvetica,sans-serif;text-anchor:middle;" transform="matrix(1 0 0 1 2339.98 322)">Bold</text>
  <text style="stroke:none;fill:black;font-family:-apple-system,&quot;SF Pro Display&quot;,&quot;SF Pro Text&quot;,Helvetica,sans-serif;text-anchor:middle;" transform="matrix(1 0 0 1 2636.69 322)">Heavy</text>
  <text style="stroke:none;fill:black;font-family:-apple-system,&quot;SF Pro Display&quot;,&quot;SF Pro Text&quot;,Helvetica,sans-serif;text-anchor:middle;" transform="matrix(1 0 0 1 2933.4 322)">Black</text>
  <line id="" style="fill:none;stroke:black;opacity:1;stroke-width:0.5;" x1="263" x2="3036" y1="1903" y2="1903"/>
  <g id="" transform="matrix(1 0 0 1 263 1933)">
   <path d="M9.24805 0.830078C13.5547 0.830078 17.1387-2.74414 17.1387-7.05078C17.1387-11.3574 13.5449-14.9316 9.23828-14.9316C4.94141-14.9316 1.36719-11.3574 1.36719-7.05078C1.36719-2.74414 4.95117 0.830078 9.24805 0.830078ZM9.24805-0.654297C5.70312-0.654297 2.87109-3.49609 2.87109-7.05078C2.87109-10.6055 5.69336-13.4473 9.23828-13.4473C12.793-13.4473 15.6348-10.6055 15.6445-7.05078C15.6543-3.49609 12.8027-0.654297 9.24805-0.654297ZM6.39648-6.31836L8.50586-6.31836L8.50586-4.19922C8.50586-3.75977 8.79883-3.45703 9.22852-3.45703C9.67773-3.45703 9.9707-3.75977 9.9707-4.19922L9.9707-6.31836L12.0996-6.31836C12.5391-6.31836 12.8418-6.61133 12.8418-7.04102C12.8418-7.48047 12.5391-7.7832 12.0996-7.7832L9.9707-7.7832L9.9707-9.89258C9.9707-10.3418 9.67773-10.6445 9.22852-10.6445C8.79883-10.6445 8.50586-10.3418 8.50586-9.89258L8.50586-7.7832L6.39648-7.7832C5.94727-7.7832 5.64453-7.48047 5.64453-7.04102C5.64453-6.61133 5.94727-6.31836 6.39648-6.31836Z"/>
  </g>
  <g id="" transform="matrix(1 0 0 1 281.506 1933)">
   <path d="M11.709 2.91016C17.1582 2.91016 21.6699-1.61133 21.6699-7.05078C21.6699-12.5 17.1484-17.0117 11.6992-17.0117C6.25977-17.0117 1.74805-12.5 1.74805-7.05078C1.74805-1.61133 6.26953 2.91016 11.709 2.91016ZM11.709 1.25C7.09961 1.25 3.41797-2.44141 3.41797-7.05078C3.41797-11.6602 7.08984-15.3516 11.6992-15.3516C16.3086-15.3516 20-11.6602 20.0098-7.05078C20.0195-2.44141 16.3184 1.25 11.709 1.25ZM7.98828-6.23047L10.8789-6.23047L10.8789-3.32031C10.8789-2.83203 11.2109-2.5 11.6895-2.5C12.1777-2.5 12.5195-2.83203 12.5195-3.32031L12.5195-6.23047L15.4297-6.23047C15.918-6.23047 16.25-6.5625 16.25-7.04102C16.25-7.5293 15.918-7.87109 15.4297-7.87109L12.5195-7.87109L12.5195-10.7617C12.5195-11.2695 12.1777-11.6016 11.6895-11.6016C11.2109-11.6016 10.8789-11.2598 10.8789-10.7617L10.8789-7.87109L7.98828-7.87109C7.48047-7.87109 7.14844-7.5293 7.14844-7.04102C7.14844-6.5625 7.49023-6.23047 7.98828-6.23047Z"/>
  </g>
  <g id="" transform="matrix(1 0 0 1 304.924 1933)">
   <path d="M14.9707 5.66406C21.9336 5.66406 27.6953-0.0976562 27.6953-7.05078C27.6953-14.0137 21.9238-19.7754 14.9609-19.7754C8.00781-19.7754 2.25586-14.0137 2.25586-7.05078C2.25586-0.0976562 8.01758 5.66406 14.9707 5.66406ZM14.9707 3.84766C8.93555 3.84766 4.08203-1.01562 4.08203-7.05078C4.08203-13.0957 8.92578-17.9492 14.9609-17.9492C21.0059-17.9492 25.8594-13.0957 25.8691-7.05078C25.8789-1.01562 21.0156 3.84766 14.9707 3.84766ZM10.0586-6.14258L14.0625-6.14258L14.0625-2.12891C14.0625-1.5918 14.4336-1.2207 14.9512-1.2207C15.4883-1.2207 15.8594-1.5918 15.8594-2.12891L15.8594-6.14258L19.8828-6.14258C20.4102-6.14258 20.791-6.51367 20.791-7.03125C20.791-7.56836 20.4199-7.94922 19.8828-7.94922L15.8594-7.94922L15.8594-11.9531C15.8594-12.5098 15.4883-12.8809 14.9512-12.8809C14.4336-12.8809 14.0625-12.5 14.0625-11.9531L14.0625-7.94922L10.0586-7.94922C9.50195-7.94922 9.13086-7.56836 9.13086-7.03125C9.13086-6.51367 9.51172-6.14258 10.0586-6.14258Z"/>
  </g>
  <text style="stroke:none;fill:black;font-family:-apple-system,&quot;SF Pro Display&quot;,&quot;SF Pro Text&quot;,Helvetica,sans-serif;font-weight:bold;" transform="matrix(1 0 0 1 263 1953)">Design Variations</text>
  <text style="stroke:none;fill:black;font-family:-apple-system,&quot;SF Pro Display&quot;,&quot;SF Pro Text&quot;,Helvetica,sans-serif;" transform="matrix(1 0 0 1 263 1971)">Symbols are supported in up to nine weights and three scales.</text>
  <text style="stroke:none;fill:black;font-family:-apple-system,&quot;SF Pro Display&quot;,&quot;SF Pro Text&quot;,Helvetica,sans-serif;" transform="matrix(1 0 0 1 263 1989)">For optimal layout with text and other symbols, vertically align</text>
  <text style="stroke:none;fill:black;font-family:-apple-system,&quot;SF Pro Display&quot;,&quot;SF Pro Text&quot;,Helvetica,sans-serif;" transform="matrix(1 0 0 1 263 2007)">symbols with the adjacent text.</text>
  <line id="" style="fill:none;stroke:#00AEEF;stroke-width:0.5;opacity:1.0;" x1="776" x2="776" y1="1919" y2="1933"/>
  <g id="" transform="matrix(1 0 0 1 776 1933)">
   <path d="M3.31055 0.126953C3.82812 0.126953 4.08203-0.0683594 4.26758-0.605469L5.52734-4.0625L11.2891-4.0625L12.5488-0.605469C12.7344-0.0683594 12.9883 0.126953 13.4961 0.126953C14.0137 0.126953 14.3457-0.185547 14.3457-0.673828C14.3457-0.839844 14.3164-0.986328 14.2383-1.20117L9.6582-13.3887C9.43359-13.9941 9.0332-14.2871 8.4082-14.2871C7.80273-14.2871 7.39258-13.9941 7.17773-13.3984L2.59766-1.19141C2.51953-0.976562 2.49023-0.830078 2.49023-0.664062C2.49023-0.175781 2.80273 0.126953 3.31055 0.126953ZM6.00586-5.53711L8.37891-12.1094L8.42773-12.1094L10.8008-5.53711Z"/>
  </g>
  <line id="" style="fill:none;stroke:#00AEEF;stroke-width:0.5;opacity:1.0;" x1="792.836" x2="792.836" y1="1919" y2="1933"/>
  <text style="stroke:none;fill:black;font-family:-apple-system,&quot;SF Pro Display&quot;,&quot;SF Pro Text&quot;,Helvetica,sans-serif;font-weight:bold;" transform="matrix(1 0 0 1 776 1953)">Margins</text>
  <text style="stroke:none;fill:black;font-family:-apple-system,&quot;SF Pro Display&quot;,&quot;SF Pro Text&quot;,Helvetica,sans-serif;" transform="matrix(1 0 0 1 776 1971)">Leading and trailing margins on the left and right side of each symbol</text>
  <text style="stroke:none;fill:black;font-family:-apple-system,&quot;SF Pro Display&quot;,&quot;SF Pro Text&quot;,Helvetica,sans-serif;" transform="matrix(1 0 0 1 776 1989)">can be adjusted by modifying the x-location of the margin guidelines.</text>
  <text style="stroke:none;fill:black;font-family:-apple-system,&quot;SF Pro Display&quot;,&quot;SF Pro Text&quot;,Helvetica,sans-serif;" transform="matrix(1 0 0 1 776 2007)">Modifications are automatically applied proportionally to all</text>
  <text style="stroke:none;fill:black;font-family:-apple-system,&quot;SF Pro Display&quot;,&quot;SF Pro Text&quot;,Helvetica,sans-serif;" transform="matrix(1 0 0 1 776 2025)">scales and weights.</text>
  <g id="" transform="matrix(1 0 0 1 1289 1933)">
   <path d="M2.8418 1.86523L4.54102 3.57422C5.40039 4.44336 6.38672 4.38477 7.31445 3.35938L17.4902-7.85156C17.7539-7.76367 18.0273-7.7832 18.3398-7.8418L19.4043-8.03711L20.0684-7.36328L20.0293-6.80664C19.9902-6.30859 20.1172-5.92773 20.6055-5.44922L21.3672-4.70703C21.8457-4.22852 22.4609-4.19922 22.9297-4.66797L25.8398-7.58789C26.3086-8.05664 26.2891-8.65234 25.8105-9.13086L25.0391-9.89258C24.5605-10.3711 24.1895-10.5273 23.7109-10.4883L23.1348-10.4395L22.4902-11.0742L22.7344-12.1973C22.8613-12.7637 22.7051-13.2031 22.1191-13.7891L19.9219-15.9766C16.582-19.2969 12.1484-19.2188 9.25781-16.3281C8.83789-15.918 8.80859-15.3418 9.04297-14.9512C9.27734-14.5898 9.73633-14.3555 10.3809-14.5215C11.8457-14.8633 13.3691-14.9219 14.7949-13.9844L14.209-12.5293C14.0137-12.0508 13.9844-11.6504 14.1113-11.2891L3.04688-0.898438C2.06055 0.0195312 1.98242 0.996094 2.8418 1.86523ZM10.752-15.957C13.1836-17.7344 16.4746-17.4316 18.7012-15.2051L21.1328-12.793C21.3672-12.5586 21.4062-12.373 21.3379-12.0312L21.0156-10.5469L22.5195-9.0625L23.5059-9.12109C23.7598-9.13086 23.8379-9.11133 24.0332-8.91602L24.6094-8.33984L22.168-5.89844L21.5918-6.47461C21.3965-6.66992 21.3672-6.74805 21.377-7.01172L21.4453-7.98828L19.9512-9.47266L18.4277-9.21875C18.1055-9.15039 17.959-9.17969 17.7148-9.41406L15.7129-11.416C15.459-11.6504 15.4297-11.8164 15.5859-12.1875L16.4648-14.2773C14.9023-15.7324 12.8711-16.3574 10.8398-15.7617C10.6836-15.7227 10.625-15.8496 10.752-15.957ZM5.27344 2.30469L4.10156 1.14258C3.63281 0.683594 3.74023 0.341797 4.14062-0.0195312L14.9512-10.1953L16.416-8.71094L6.42578 2.27539C6.07422 2.67578 5.74219 2.77344 5.27344 2.30469Z"/>
  </g>
  <text style="stroke:none;fill:black;font-family:-apple-system,&quot;SF Pro Display&quot;,&quot;SF Pro Text&quot;,Helvetica,sans-serif;font-weight:bold;" transform="matrix(1 0 0 1 1289 1953)">Exporting</text>
  <text style="stroke:none;fill:black;font-family:-apple-system,&quot;SF Pro Display&quot;,&quot;SF Pro Text&quot;,Helvetica,sans-serif;" transform="matrix(1 0 0 1 1289 1971)">Symbols should be outlined when exporting to ensure the</text>
  <text style="stroke:none;fill:black;font-family:-apple-system,&quot;SF Pro Display&quot;,&quot;SF Pro Text&quot;,Helvetica,sans-serif;" transform="matrix(1 0 0 1 1289 1989)">design is preserved when submitting to Xcode.</text>
  <text id="template-version" style="stroke:none;fill:black;font-family:-apple-system,&quot;SF Pro Display&quot;,&quot;SF Pro Text&quot;,Helvetica,sans-serif;text-anchor:end;" transform="matrix(1 0 0 1 3036 1933)">Template v.2.0</text>
  <text style="stroke:none;fill:black;font-family:-apple-system,&quot;SF Pro Display&quot;,&quot;SF Pro Text&quot;,Helvetica,sans-serif;text-anchor:end;" transform="matrix(1 0 0 1 3036 1951)">Requires Xcode 12 or greater</text>
  <text style="stroke:none;fill:black;font-family:-apple-system,&quot;SF Pro Display&quot;,&quot;SF Pro Text&quot;,Helvetica,sans-serif;" transform="matrix(1 0 0 1 263 726)">Small</text>
  <text style="stroke:none;fill:black;font-family:-apple-system,&quot;SF Pro Display&quot;,&quot;SF Pro Text&quot;,Helvetica,sans-serif;" transform="matrix(1 0 0 1 263 1156)">Medium</text>
  <text style="stroke:none;fill:black;font-family:-apple-system,&quot;SF Pro Display&quot;,&quot;SF Pro Text&quot;,Helvetica,sans-serif;" transform="matrix(1 0 0 1 263 1586)">Large</text>
 </g>
 <g id="Guides">
  <g id="H-reference" style="fill:#27AAE1;stroke:none;" transform="matrix(1 0 0 1 339 696)">
   <path d="M0.976562 0L3.66211 0L12.9883-24.4629L45.752-24.4629L55.127 0L57.7637 0L30.6152-70.459L28.125-70.459ZM29.3457-67.1387L29.4434-67.1387L44.873-26.709L13.8672-26.709Z"/>
  </g>
  <line id="Baseline-S" style="fill:none;stroke:#27AAE1;opacity:1;stroke-width:0.5;" x1="263" x2="3036" y1="696" y2="696"/>
  <line id="Capline-S" style="fill:none;stroke:#27AAE1;opacity:1;stroke-width:0.5;" x1="263" x2="3036" y1="625.541" y2="625.541"/>
  <g id="H-reference" style="fill:#27AAE1;stroke:none;" transform="matrix(1 0 0 1 339 1126)">
   <path d="M0.976562 0L3.66211 0L12.9883-24.4629L45.752-24.4629L55.127 0L57.7637 0L30.6152-70.459L28.125-70.459ZM29.3457-67.1387L29.4434-67.1387L44.873-26.709L13.8672-26.709Z"/>
  </g>
  <line id="Baseline-M" style="fill:none;stroke:#27AAE1;opacity:1;stroke-width:0.5;" x1="263" x2="3036" y1="1126" y2="1126"/>
  <line id="Capline-M" style="fill:none;stroke:#27AAE1;opacity:1;stroke-width:0.5;" x1="263" x2="3036" y1="1055.54" y2="1055.54"/>
  <g id="H-reference" style="fill:#27AAE1;stroke:none;" transform="matrix(1 0 0 1 339 1556)">
   <path d="M0.976562 0L3.66211 0L12.9883-24.4629L45.752-24.4629L55.127 0L57.7637 0L30.6152-70.459L28.125-70.459ZM29.3457-67.1387L29.4434-67.1387L44.873-26.709L13.8672-26.709Z"/>
  </g>
  <line id="Baseline-L" style="fill:none;stroke:#27AAE1;opacity:1;stroke-width:0.5;" x1="263" x2="3036" y1="1556" y2="1556"/>
  <line id="Capline-L" style="fill:none;stroke:#27AAE1;opacity:1;stroke-width:0.5;" x1="263" x2="3036" y1="1485.54" y2="1485.54"/>
  <line id="left-margin" x1="1415.759099609375" x2="1415.759099609375" y1="1030.79" y2="1150.12" style="fill:none;stroke:#00AEEF;stroke-width:0.5;opacity:1.0;"/>
  <line id="right-margin" x1="1486.5009003906248" x2="1486.5009003906248" y1="1030.79" y2="1150.12" style="fill:none;stroke:#00AEEF;stroke-width:0.5;opacity:1.0;"/>
 </g>
 <g id="Symbols">
  <g id="Black-L" transform="matrix(1.0,0.0,0.0,1.0,2889.2333251953123,1475.3233447265625)">  <path stroke-miterlimit="4" y="0px" stroke-linejoin="miter" version="1.1" xmlns:xlink="http://www.w3.org/1999/xlink" fill-rule="nonzero" fill-opacity="1" stroke-dasharray="none" stroke-linecap="butt" x="0px" xml:space="preserve" stroke-width="1px" stroke-opacity="1" stroke="none" fill="#000000" d="M85.877,9.001L89.66,5.219L85.666,1.225L81.886,5.005C77.765,1.761,72.709,0,67.382,0C63.852,0,60.314,0.808,57.15,2.336L21.138,19.738C17.367,21.56,13.941,23.997,10.957,26.981C-3.641,41.579,-3.641,65.331,10.957,79.928C18.028,86.999,27.43,90.894,37.43,90.894C47.43,90.894,56.832,86.999,63.903,79.928C66.887,76.944,69.324,73.518,71.147,69.747L88.548,33.734C92.48,25.597,91.358,15.99,85.877,9.001ZM83.463,31.278L66.062,67.29C64.515,70.49,62.445,73.399,59.909,75.935C53.905,81.939,45.921,85.246,37.43,85.246C28.938,85.246,20.955,81.939,14.95,75.935C2.555,63.539,2.555,43.37,14.95,30.975C17.486,28.439,20.395,26.369,23.595,24.823L59.607,7.422C62.009,6.261,64.698,5.648,67.382,5.648C72.152,5.648,76.636,7.505,80.008,10.877C85.376,16.245,86.764,24.444,83.463,31.278ZM83.463,31.278"/>
  <path fill="#000000" version="1.1" xmlns:xlink="http://www.w3.org/1999/xlink" stroke-linejoin="miter" y="0px" stroke-opacity="1" xml:space="preserve" stroke-width="1px" fill-rule="nonzero" stroke-linecap="butt" x="0px" stroke-miterlimit="4" stroke-dasharray="none" stroke="none" fill-opacity="1" d="M37.43,33.97C32.225,33.97,27.332,35.997,23.652,39.677C16.055,47.274,16.055,59.635,23.652,67.232C27.332,70.913,32.225,72.939,37.43,72.939C42.634,72.939,47.527,70.913,51.208,67.232C58.805,59.635,58.805,47.274,51.208,39.677C47.527,35.997,42.634,33.97,37.43,33.97ZM47.214,63.239C44.601,65.852,41.126,67.292,37.43,67.292C33.734,67.292,30.259,65.852,27.645,63.239C22.25,57.844,22.25,49.065,27.645,43.671C30.259,41.057,33.734,39.618,37.43,39.618C41.126,39.618,44.601,41.057,47.214,43.671C52.609,49.065,52.609,57.844,47.214,63.239ZM47.214,63.239"/>
</g>
  <g id="Heavy-L" transform="matrix(1.0,0.0,0.0,1.0,2592.5233251953123,1475.3233447265625)">  <path xml:space="preserve" stroke-width="1px" y="0px" fill="#000000" fill-opacity="1" x="0px" stroke-linecap="butt" version="1.1" xmlns:xlink="http://www.w3.org/1999/xlink" fill-rule="nonzero" stroke-miterlimit="4" stroke="none" stroke-dasharray="none" stroke-opacity="1" stroke-linejoin="miter" d="M85.877,9.001L89.66,5.219L85.666,1.225L81.886,5.005C77.765,1.761,72.709,0,67.382,0C63.852,0,60.314,0.808,57.15,2.336L21.138,19.738C17.367,21.56,13.941,23.997,10.957,26.981C-3.641,41.579,-3.641,65.331,10.957,79.928C18.028,86.999,27.43,90.894,37.43,90.894C47.43,90.894,56.832,86.999,63.903,79.928C66.887,76.944,69.324,73.518,71.147,69.747L88.548,33.734C92.48,25.597,91.358,15.99,85.877,9.001ZM83.463,31.278L66.062,67.29C64.515,70.49,62.445,73.399,59.909,75.935C53.905,81.939,45.921,85.246,37.43,85.246C28.938,85.246,20.955,81.939,14.95,75.935C2.555,63.539,2.555,43.37,14.95,30.975C17.486,28.439,20.395,26.369,23.595,24.823L59.607,7.422C62.009,6.261,64.698,5.648,67.382,5.648C72.152,5.648,76.636,7.505,80.008,10.877C85.376,16.245,86.764,24.444,83.463,31.278ZM83.463,31.278"/>
  <path y="0px" stroke-opacity="1" version="1.1" stroke-linejoin="miter" xmlns:xlink="http://www.w3.org/1999/xlink" stroke-width="1px" xml:space="preserve" x="0px" stroke-dasharray="none" stroke-linecap="butt" stroke-miterlimit="4" stroke="none" fill-rule="nonzero" fill="#000000" fill-opacity="1" d="M37.43,33.97C32.225,33.97,27.332,35.997,23.652,39.677C16.055,47.274,16.055,59.635,23.652,67.232C27.332,70.913,32.225,72.939,37.43,72.939C42.634,72.939,47.527,70.913,51.208,67.232C58.805,59.635,58.805,47.274,51.208,39.677C47.527,35.997,42.634,33.97,37.43,33.97ZM47.214,63.239C44.601,65.852,41.126,67.292,37.43,67.292C33.734,67.292,30.259,65.852,27.645,63.239C22.25,57.844,22.25,49.065,27.645,43.671C30.259,41.057,33.734,39.618,37.43,39.618C41.126,39.618,44.601,41.057,47.214,43.671C52.609,49.065,52.609,57.844,47.214,63.239ZM47.214,63.239"/>
</g>
  <g id="Bold-L" transform="matrix(1.0,0.0,0.0,1.0,2295.8133251953122,1475.3233447265625)">  <path stroke-miterlimit="4" stroke-dasharray="none" version="1.1" xml:space="preserve" stroke="none" xmlns:xlink="http://www.w3.org/1999/xlink" fill="#000000" stroke-linejoin="miter" fill-opacity="1" stroke-width="1px" stroke-linecap="butt" y="0px" stroke-opacity="1" fill-rule="nonzero" x="0px" d="M85.877,9.001L89.66,5.219L85.666,1.225L81.886,5.005C77.765,1.761,72.709,0,67.382,0C63.852,0,60.314,0.808,57.15,2.336L21.138,19.738C17.367,21.56,13.941,23.997,10.957,26.981C-3.641,41.579,-3.641,65.331,10.957,79.928C18.028,86.999,27.43,90.894,37.43,90.894C47.43,90.894,56.832,86.999,63.903,79.928C66.887,76.944,69.324,73.518,71.147,69.747L88.548,33.734C92.48,25.597,91.358,15.99,85.877,9.001ZM83.463,31.278L66.062,67.29C64.515,70.49,62.445,73.399,59.909,75.935C53.905,81.939,45.921,85.246,37.43,85.246C28.938,85.246,20.955,81.939,14.95,75.935C2.555,63.539,2.555,43.37,14.95,30.975C17.486,28.439,20.395,26.369,23.595,24.823L59.607,7.422C62.009,6.261,64.698,5.648,67.382,5.648C72.152,5.648,76.636,7.505,80.008,10.877C85.376,16.245,86.764,24.444,83.463,31.278ZM83.463,31.278"/>
  <path stroke-width="1px" stroke-linecap="butt" stroke="none" fill="#000000" stroke-linejoin="miter" xmlns:xlink="http://www.w3.org/1999/xlink" stroke-dasharray="none" fill-rule="nonzero" xml:space="preserve" x="0px" version="1.1" stroke-opacity="1" fill-opacity="1" y="0px" stroke-miterlimit="4" d="M37.43,33.97C32.225,33.97,27.332,35.997,23.652,39.677C16.055,47.274,16.055,59.635,23.652,67.232C27.332,70.913,32.225,72.939,37.43,72.939C42.634,72.939,47.527,70.913,51.208,67.232C58.805,59.635,58.805,47.274,51.208,39.677C47.527,35.997,42.634,33.97,37.43,33.97ZM47.214,63.239C44.601,65.852,41.126,67.292,37.43,67.292C33.734,67.292,30.259,65.852,27.645,63.239C22.25,57.844,22.25,49.065,27.645,43.671C30.259,41.057,33.734,39.618,37.43,39.618C41.126,39.618,44.601,41.057,47.214,43.671C52.609,49.065,52.609,57.844,47.214,63.239ZM47.214,63.239"/>
</g>
  <g id="Semibold-L" transform="matrix(1.0,0.0,0.0,1.0,1999.1033251953124,1475.3233447265625)">  <path version="1.1" xmlns:xlink="http://www.w3.org/1999/xlink" fill-rule="nonzero" stroke-width="1px" y="0px" x="0px" stroke="none" stroke-miterlimit="4" fill-opacity="1" stroke-dasharray="none" stroke-linejoin="miter" stroke-linecap="butt" fill="#000000" stroke-opacity="1" xml:space="preserve" d="M85.877,9.001L89.66,5.219L85.666,1.225L81.886,5.005C77.765,1.761,72.709,0,67.382,0C63.852,0,60.314,0.808,57.15,2.336L21.138,19.738C17.367,21.56,13.941,23.997,10.957,26.981C-3.641,41.579,-3.641,65.331,10.957,79.928C18.028,86.999,27.43,90.894,37.43,90.894C47.43,90.894,56.832,86.999,63.903,79.928C66.887,76.944,69.324,73.518,71.147,69.747L88.548,33.734C92.48,25.597,91.358,15.99,85.877,9.001ZM83.463,31.278L66.062,67.29C64.515,70.49,62.445,73.399,59.909,75.935C53.905,81.939,45.921,85.246,37.43,85.246C28.938,85.246,20.955,81.939,14.95,75.935C2.555,63.539,2.555,43.37,14.95,30.975C17.486,28.439,20.395,26.369,23.595,24.823L59.607,7.422C62.009,6.261,64.698,5.648,67.382,5.648C72.152,5.648,76.636,7.505,80.008,10.877C85.376,16.245,86.764,24.444,83.463,31.278ZM83.463,31.278"/>
  <path stroke-miterlimit="4" stroke="none" fill-opacity="1" stroke-width="1px" y="0px" stroke-linecap="butt" fill-rule="nonzero" x="0px" stroke-dasharray="none" version="1.1" xml:space="preserve" fill="#000000" xmlns:xlink="http://www.w3.org/1999/xlink" stroke-opacity="1" stroke-linejoin="miter" d="M37.43,33.97C32.225,33.97,27.332,35.997,23.652,39.677C16.055,47.274,16.055,59.635,23.652,67.232C27.332,70.913,32.225,72.939,37.43,72.939C42.634,72.939,47.527,70.913,51.208,67.232C58.805,59.635,58.805,47.274,51.208,39.677C47.527,35.997,42.634,33.97,37.43,33.97ZM47.214,63.239C44.601,65.852,41.126,67.292,37.43,67.292C33.734,67.292,30.259,65.852,27.645,63.239C22.25,57.844,22.25,49.065,27.645,43.671C30.259,41.057,33.734,39.618,37.43,39.618C41.126,39.618,44.601,41.057,47.214,43.671C52.609,49.065,52.609,57.844,47.214,63.239ZM47.214,63.239"/>
</g>
  <g id="Medium-L" transform="matrix(1.0,0.0,0.0,1.0,1702.3933251953124,1475.3233447265625)">  <path stroke-linecap="butt" y="0px" stroke-opacity="1" stroke-dasharray="none" version="1.1" stroke-linejoin="miter" stroke="none" fill-rule="nonzero" stroke-width="1px" x="0px" stroke-miterlimit="4" fill="#000000" fill-opacity="1" xml:space="preserve" xmlns:xlink="http://www.w3.org/1999/xlink" d="M85.877,9.001L89.66,5.219L85.666,1.225L81.886,5.005C77.765,1.761,72.709,0,67.382,0C63.852,0,60.314,0.808,57.15,2.336L21.138,19.738C17.367,21.56,13.941,23.997,10.957,26.981C-3.641,41.579,-3.641,65.331,10.957,79.928C18.028,86.999,27.43,90.894,37.43,90.894C47.43,90.894,56.832,86.999,63.903,79.928C66.887,76.944,69.324,73.518,71.147,69.747L88.548,33.734C92.48,25.597,91.358,15.99,85.877,9.001ZM83.463,31.278L66.062,67.29C64.515,70.49,62.445,73.399,59.909,75.935C53.905,81.939,45.921,85.246,37.43,85.246C28.938,85.246,20.955,81.939,14.95,75.935C2.555,63.539,2.555,43.37,14.95,30.975C17.486,28.439,20.395,26.369,23.595,24.823L59.607,7.422C62.009,6.261,64.698,5.648,67.382,5.648C72.152,5.648,76.636,7.505,80.008,10.877C85.376,16.245,86.764,24.444,83.463,31.278ZM83.463,31.278"/>
  <path stroke-width="1px" y="0px" stroke-linejoin="miter" stroke="none" stroke-linecap="butt" fill="#000000" stroke-opacity="1" stroke-dasharray="none" stroke-miterlimit="4" version="1.1" xmlns:xlink="http://www.w3.org/1999/xlink" fill-rule="nonzero" x="0px" fill-opacity="1" xml:space="preserve" d="M37.43,33.97C32.225,33.97,27.332,35.997,23.652,39.677C16.055,47.274,16.055,59.635,23.652,67.232C27.332,70.913,32.225,72.939,37.43,72.939C42.634,72.939,47.527,70.913,51.208,67.232C58.805,59.635,58.805,47.274,51.208,39.677C47.527,35.997,42.634,33.97,37.43,33.97ZM47.214,63.239C44.601,65.852,41.126,67.292,37.43,67.292C33.734,67.292,30.259,65.852,27.645,63.239C22.25,57.844,22.25,49.065,27.645,43.671C30.259,41.057,33.734,39.618,37.43,39.618C41.126,39.618,44.601,41.057,47.214,43.671C52.609,49.065,52.609,57.844,47.214,63.239ZM47.214,63.239"/>
</g>
  <g id="Regular-L" transform="matrix(1.0,0.0,0.0,1.0,1405.6833251953124,1475.3233447265625)">  <path stroke-opacity="1" stroke-dasharray="none" stroke-linejoin="miter" fill-rule="nonzero" stroke-miterlimit="4" version="1.1" xml:space="preserve" fill="#000000" xmlns:xlink="http://www.w3.org/1999/xlink" stroke="none" x="0px" stroke-linecap="butt" fill-opacity="1" y="0px" stroke-width="1px" d="M85.877,9.001L89.66,5.219L85.666,1.225L81.886,5.005C77.765,1.761,72.709,0,67.382,0C63.852,0,60.314,0.808,57.15,2.336L21.138,19.738C17.367,21.56,13.941,23.997,10.957,26.981C-3.641,41.579,-3.641,65.331,10.957,79.928C18.028,86.999,27.43,90.894,37.43,90.894C47.43,90.894,56.832,86.999,63.903,79.928C66.887,76.944,69.324,73.518,71.147,69.747L88.548,33.734C92.48,25.597,91.358,15.99,85.877,9.001ZM83.463,31.278L66.062,67.29C64.515,70.49,62.445,73.399,59.909,75.935C53.905,81.939,45.921,85.246,37.43,85.246C28.938,85.246,20.955,81.939,14.95,75.935C2.555,63.539,2.555,43.37,14.95,30.975C17.486,28.439,20.395,26.369,23.595,24.823L59.607,7.422C62.009,6.261,64.698,5.648,67.382,5.648C72.152,5.648,76.636,7.505,80.008,10.877C85.376,16.245,86.764,24.444,83.463,31.278ZM83.463,31.278"/>
  <path stroke-miterlimit="4" x="0px" stroke-linejoin="miter" y="0px" stroke-dasharray="none" stroke-linecap="butt" stroke="none" fill-rule="nonzero" fill="#000000" xml:space="preserve" stroke-width="1px" fill-opacity="1" xmlns:xlink="http://www.w3.org/1999/xlink" version="1.1" stroke-opacity="1" d="M37.43,33.97C32.225,33.97,27.332,35.997,23.652,39.677C16.055,47.274,16.055,59.635,23.652,67.232C27.332,70.913,32.225,72.939,37.43,72.939C42.634,72.939,47.527,70.913,51.208,67.232C58.805,59.635,58.805,47.274,51.208,39.677C47.527,35.997,42.634,33.97,37.43,33.97ZM47.214,63.239C44.601,65.852,41.126,67.292,37.43,67.292C33.734,67.292,30.259,65.852,27.645,63.239C22.25,57.844,22.25,49.065,27.645,43.671C30.259,41.057,33.734,39.618,37.43,39.618C41.126,39.618,44.601,41.057,47.214,43.671C52.609,49.065,52.609,57.844,47.214,63.239ZM47.214,63.239"/>
</g>
  <g id="Light-L" transform="matrix(1.0,0.0,0.0,1.0,1108.9733251953126,1475.3233447265625)">  <path x="0px" stroke-dasharray="none" stroke="none" stroke-linecap="butt" stroke-linejoin="miter" y="0px" fill="#000000" version="1.1" fill-opacity="1" xmlns:xlink="http://www.w3.org/1999/xlink" stroke-opacity="1" stroke-width="1px" stroke-miterlimit="4" xml:space="preserve" fill-rule="nonzero" d="M85.877,9.001L89.66,5.219L85.666,1.225L81.886,5.005C77.765,1.761,72.709,0,67.382,0C63.852,0,60.314,0.808,57.15,2.336L21.138,19.738C17.367,21.56,13.941,23.997,10.957,26.981C-3.641,41.579,-3.641,65.331,10.957,79.928C18.028,86.999,27.43,90.894,37.43,90.894C47.43,90.894,56.832,86.999,63.903,79.928C66.887,76.944,69.324,73.518,71.147,69.747L88.548,33.734C92.48,25.597,91.358,15.99,85.877,9.001ZM83.463,31.278L66.062,67.29C64.515,70.49,62.445,73.399,59.909,75.935C53.905,81.939,45.921,85.246,37.43,85.246C28.938,85.246,20.955,81.939,14.95,75.935C2.555,63.539,2.555,43.37,14.95,30.975C17.486,28.439,20.395,26.369,23.595,24.823L59.607,7.422C62.009,6.261,64.698,5.648,67.382,5.648C72.152,5.648,76.636,7.505,80.008,10.877C85.376,16.245,86.764,24.444,83.463,31.278ZM83.463,31.278"/>
  <path stroke-width="1px" fill="#000000" fill-opacity="1" version="1.1" x="0px" stroke-opacity="1" stroke-miterlimit="4" stroke-linejoin="miter" stroke="none" stroke-linecap="butt" y="0px" xml:space="preserve" stroke-dasharray="none" fill-rule="nonzero" xmlns:xlink="http://www.w3.org/1999/xlink" d="M37.43,33.97C32.225,33.97,27.332,35.997,23.652,39.677C16.055,47.274,16.055,59.635,23.652,67.232C27.332,70.913,32.225,72.939,37.43,72.939C42.634,72.939,47.527,70.913,51.208,67.232C58.805,59.635,58.805,47.274,51.208,39.677C47.527,35.997,42.634,33.97,37.43,33.97ZM47.214,63.239C44.601,65.852,41.126,67.292,37.43,67.292C33.734,67.292,30.259,65.852,27.645,63.239C22.25,57.844,22.25,49.065,27.645,43.671C30.259,41.057,33.734,39.618,37.43,39.618C41.126,39.618,44.601,41.057,47.214,43.671C52.609,49.065,52.609,57.844,47.214,63.239ZM47.214,63.239"/>
</g>
  <g id="Thin-L" transform="matrix(1.0,0.0,0.0,1.0,812.2633251953125,1475.3233447265625)">  <path y="0px" stroke-linecap="butt" stroke-width="1px" fill-opacity="1" xml:space="preserve" stroke="none" version="1.1" stroke-linejoin="miter" fill="#000000" fill-rule="nonzero" stroke-miterlimit="4" xmlns:xlink="http://www.w3.org/1999/xlink" x="0px" stroke-dasharray="none" stroke-opacity="1" d="M85.877,9.001L89.66,5.219L85.666,1.225L81.886,5.005C77.765,1.761,72.709,0,67.382,0C63.852,0,60.314,0.808,57.15,2.336L21.138,19.738C17.367,21.56,13.941,23.997,10.957,26.981C-3.641,41.579,-3.641,65.331,10.957,79.928C18.028,86.999,27.43,90.894,37.43,90.894C47.43,90.894,56.832,86.999,63.903,79.928C66.887,76.944,69.324,73.518,71.147,69.747L88.548,33.734C92.48,25.597,91.358,15.99,85.877,9.001ZM83.463,31.278L66.062,67.29C64.515,70.49,62.445,73.399,59.909,75.935C53.905,81.939,45.921,85.246,37.43,85.246C28.938,85.246,20.955,81.939,14.95,75.935C2.555,63.539,2.555,43.37,14.95,30.975C17.486,28.439,20.395,26.369,23.595,24.823L59.607,7.422C62.009,6.261,64.698,5.648,67.382,5.648C72.152,5.648,76.636,7.505,80.008,10.877C85.376,16.245,86.764,24.444,83.463,31.278ZM83.463,31.278"/>
  <path fill="#000000" stroke-linecap="butt" stroke-opacity="1" stroke-linejoin="miter" x="0px" version="1.1" stroke-width="1px" fill-opacity="1" xmlns:xlink="http://www.w3.org/1999/xlink" xml:space="preserve" stroke-dasharray="none" y="0px" stroke="none" stroke-miterlimit="4" fill-rule="nonzero" d="M37.43,33.97C32.225,33.97,27.332,35.997,23.652,39.677C16.055,47.274,16.055,59.635,23.652,67.232C27.332,70.913,32.225,72.939,37.43,72.939C42.634,72.939,47.527,70.913,51.208,67.232C58.805,59.635,58.805,47.274,51.208,39.677C47.527,35.997,42.634,33.97,37.43,33.97ZM47.214,63.239C44.601,65.852,41.126,67.292,37.43,67.292C33.734,67.292,30.259,65.852,27.645,63.239C22.25,57.844,22.25,49.065,27.645,43.671C30.259,41.057,33.734,39.618,37.43,39.618C41.126,39.618,44.601,41.057,47.214,43.671C52.609,49.065,52.609,57.844,47.214,63.239ZM47.214,63.239"/>
</g>
  <g id="Ultralight-L" transform="matrix(1.0,0.0,0.0,1.0,515.5533251953125,1475.3233447265625)">  <path x="0px" stroke-linecap="butt" fill-opacity="1" stroke-miterlimit="4" xml:space="preserve" stroke-width="1px" stroke="none" stroke-dasharray="none" fill="#000000" xmlns:xlink="http://www.w3.org/1999/xlink" stroke-linejoin="miter" version="1.1" fill-rule="nonzero" stroke-opacity="1" y="0px" d="M85.877,9.001L89.66,5.219L85.666,1.225L81.886,5.005C77.765,1.761,72.709,0,67.382,0C63.852,0,60.314,0.808,57.15,2.336L21.138,19.738C17.367,21.56,13.941,23.997,10.957,26.981C-3.641,41.579,-3.641,65.331,10.957,79.928C18.028,86.999,27.43,90.894,37.43,90.894C47.43,90.894,56.832,86.999,63.903,79.928C66.887,76.944,69.324,73.518,71.147,69.747L88.548,33.734C92.48,25.597,91.358,15.99,85.877,9.001ZM83.463,31.278L66.062,67.29C64.515,70.49,62.445,73.399,59.909,75.935C53.905,81.939,45.921,85.246,37.43,85.246C28.938,85.246,20.955,81.939,14.95,75.935C2.555,63.539,2.555,43.37,14.95,30.975C17.486,28.439,20.395,26.369,23.595,24.823L59.607,7.422C62.009,6.261,64.698,5.648,67.382,5.648C72.152,5.648,76.636,7.505,80.008,10.877C85.376,16.245,86.764,24.444,83.463,31.278ZM83.463,31.278"/>
  <path stroke-width="1px" fill-opacity="1" y="0px" version="1.1" xml:space="preserve" stroke-opacity="1" stroke-linecap="butt" stroke-miterlimit="4" fill-rule="nonzero" fill="#000000" stroke-dasharray="none" x="0px" stroke-linejoin="miter" xmlns:xlink="http://www.w3.org/1999/xlink" stroke="none" d="M37.43,33.97C32.225,33.97,27.332,35.997,23.652,39.677C16.055,47.274,16.055,59.635,23.652,67.232C27.332,70.913,32.225,72.939,37.43,72.939C42.634,72.939,47.527,70.913,51.208,67.232C58.805,59.635,58.805,47.274,51.208,39.677C47.527,35.997,42.634,33.97,37.43,33.97ZM47.214,63.239C44.601,65.852,41.126,67.292,37.43,67.292C33.734,67.292,30.259,65.852,27.645,63.239C22.25,57.844,22.25,49.065,27.645,43.671C30.259,41.057,33.734,39.618,37.43,39.618C41.126,39.618,44.601,41.057,47.214,43.671C52.609,49.065,52.609,57.844,47.214,63.239ZM47.214,63.239"/>
</g>
  <g id="Black-M" transform="matrix(1.0,0.0,0.0,1.0,2899.45001953125,1055.5400390625)">  <path stroke-miterlimit="4" y="0px" stroke-linejoin="miter" version="1.1" xmlns:xlink="http://www.w3.org/1999/xlink" fill-rule="nonzero" fill-opacity="1" stroke-dasharray="none" stroke-linecap="butt" x="0px" xml:space="preserve" stroke-width="1px" stroke-opacity="1" stroke="none" fill="#000000" d="M66.571,6.977L69.504,4.045L66.408,0.95L63.477,3.88C60.283,1.365,56.364,0,52.234,0C49.498,0,46.755,0.626,44.302,1.811L16.386,15.3C13.462,16.713,10.807,18.602,8.493,20.916C-2.822,32.232,-2.822,50.644,8.493,61.96C13.975,67.441,21.263,70.46,29.015,70.46C36.767,70.46,44.056,67.441,49.537,61.96C51.851,59.647,53.74,56.991,55.153,54.067L68.642,26.151C71.69,19.842,70.82,12.395,66.571,6.977ZM64.7,24.246L51.211,52.162C50.012,54.644,48.407,56.898,46.441,58.864C41.787,63.519,35.598,66.082,29.015,66.082C22.433,66.082,16.244,63.519,11.589,58.864C1.981,49.255,1.981,33.621,11.589,24.012C13.555,22.046,15.81,20.441,18.291,19.242L46.207,5.753C48.069,4.854,50.153,4.378,52.234,4.378C55.932,4.378,59.407,5.818,62.021,8.432C66.183,12.593,67.259,18.949,64.7,24.246ZM64.7,24.246"/>
  <path fill="#000000" version="1.1" xmlns:xlink="http://www.w3.org/1999/xlink" stroke-linejoin="miter" y="0px" stroke-opacity="1" xml:space="preserve" stroke-width="1px" fill-rule="nonzero" stroke-linecap="butt" x="0px" stroke-miterlimit="4" stroke-dasharray="none" stroke="none" fill-opacity="1" d="M29.015,26.333C24.981,26.333,21.188,27.904,18.335,30.757C12.446,36.646,12.446,46.229,18.335,52.118C21.188,54.971,24.981,56.542,29.015,56.542C33.05,56.542,36.843,54.971,39.696,52.118C45.585,46.229,45.585,36.646,39.696,30.757C36.843,27.904,33.05,26.333,29.015,26.333ZM36.6,49.022C34.574,51.048,31.881,52.164,29.015,52.164C26.15,52.164,23.457,51.048,21.431,49.022C17.248,44.84,17.248,38.035,21.431,33.853C23.456,31.827,26.15,30.712,29.015,30.712C31.881,30.712,34.574,31.827,36.6,33.853C40.782,38.035,40.782,44.84,36.6,49.022ZM36.6,49.022"/>
</g>
  <g id="Heavy-M" transform="matrix(1.0,0.0,0.0,1.0,2602.74001953125,1055.5400390625)">  <path xml:space="preserve" stroke-width="1px" y="0px" fill="#000000" fill-opacity="1" x="0px" stroke-linecap="butt" version="1.1" xmlns:xlink="http://www.w3.org/1999/xlink" fill-rule="nonzero" stroke-miterlimit="4" stroke="none" stroke-dasharray="none" stroke-opacity="1" stroke-linejoin="miter" d="M66.571,6.977L69.504,4.045L66.408,0.95L63.477,3.88C60.283,1.365,56.364,0,52.234,0C49.498,0,46.755,0.626,44.302,1.811L16.386,15.3C13.462,16.713,10.807,18.602,8.493,20.916C-2.822,32.232,-2.822,50.644,8.493,61.96C13.975,67.441,21.263,70.46,29.015,70.46C36.767,70.46,44.056,67.441,49.537,61.96C51.851,59.647,53.74,56.991,55.153,54.067L68.642,26.151C71.69,19.842,70.82,12.395,66.571,6.977ZM64.7,24.246L51.211,52.162C50.012,54.644,48.407,56.898,46.441,58.864C41.787,63.519,35.598,66.082,29.015,66.082C22.433,66.082,16.244,63.519,11.589,58.864C1.981,49.255,1.981,33.621,11.589,24.012C13.555,22.046,15.81,20.441,18.291,19.242L46.207,5.753C48.069,4.854,50.153,4.378,52.234,4.378C55.932,4.378,59.407,5.818,62.021,8.432C66.183,12.593,67.259,18.949,64.7,24.246ZM64.7,24.246"/>
  <path y="0px" stroke-opacity="1" version="1.1" stroke-linejoin="miter" xmlns:xlink="http://www.w3.org/1999/xlink" stroke-width="1px" xml:space="preserve" x="0px" stroke-dasharray="none" stroke-linecap="butt" stroke-miterlimit="4" stroke="none" fill-rule="nonzero" fill="#000000" fill-opacity="1" d="M29.015,26.333C24.981,26.333,21.188,27.904,18.335,30.757C12.446,36.646,12.446,46.229,18.335,52.118C21.188,54.971,24.981,56.542,29.015,56.542C33.05,56.542,36.843,54.971,39.696,52.118C45.585,46.229,45.585,36.646,39.696,30.757C36.843,27.904,33.05,26.333,29.015,26.333ZM36.6,49.022C34.574,51.048,31.881,52.164,29.015,52.164C26.15,52.164,23.457,51.048,21.431,49.022C17.248,44.84,17.248,38.035,21.431,33.853C23.456,31.827,26.15,30.712,29.015,30.712C31.881,30.712,34.574,31.827,36.6,33.853C40.782,38.035,40.782,44.84,36.6,49.022ZM36.6,49.022"/>
</g>
  <g id="Bold-M" transform="matrix(1.0,0.0,0.0,1.0,2306.0300195312498,1055.5400390625)">  <path stroke-miterlimit="4" stroke-dasharray="none" version="1.1" xml:space="preserve" stroke="none" xmlns:xlink="http://www.w3.org/1999/xlink" fill="#000000" stroke-linejoin="miter" fill-opacity="1" stroke-width="1px" stroke-linecap="butt" y="0px" stroke-opacity="1" fill-rule="nonzero" x="0px" d="M66.571,6.977L69.504,4.045L66.408,0.95L63.477,3.88C60.283,1.365,56.364,0,52.234,0C49.498,0,46.755,0.626,44.302,1.811L16.386,15.3C13.462,16.713,10.807,18.602,8.493,20.916C-2.822,32.232,-2.822,50.644,8.493,61.96C13.975,67.441,21.263,70.46,29.015,70.46C36.767,70.46,44.056,67.441,49.537,61.96C51.851,59.647,53.74,56.991,55.153,54.067L68.642,26.151C71.69,19.842,70.82,12.395,66.571,6.977ZM64.7,24.246L51.211,52.162C50.012,54.644,48.407,56.898,46.441,58.864C41.787,63.519,35.598,66.082,29.015,66.082C22.433,66.082,16.244,63.519,11.589,58.864C1.981,49.255,1.981,33.621,11.589,24.012C13.555,22.046,15.81,20.441,18.291,19.242L46.207,5.753C48.069,4.854,50.153,4.378,52.234,4.378C55.932,4.378,59.407,5.818,62.021,8.432C66.183,12.593,67.259,18.949,64.7,24.246ZM64.7,24.246"/>
  <path stroke-width="1px" stroke-linecap="butt" stroke="none" fill="#000000" stroke-linejoin="miter" xmlns:xlink="http://www.w3.org/1999/xlink" stroke-dasharray="none" fill-rule="nonzero" xml:space="preserve" x="0px" version="1.1" stroke-opacity="1" fill-opacity="1" y="0px" stroke-miterlimit="4" d="M29.015,26.333C24.981,26.333,21.188,27.904,18.335,30.757C12.446,36.646,12.446,46.229,18.335,52.118C21.188,54.971,24.981,56.542,29.015,56.542C33.05,56.542,36.843,54.971,39.696,52.118C45.585,46.229,45.585,36.646,39.696,30.757C36.843,27.904,33.05,26.333,29.015,26.333ZM36.6,49.022C34.574,51.048,31.881,52.164,29.015,52.164C26.15,52.164,23.457,51.048,21.431,49.022C17.248,44.84,17.248,38.035,21.431,33.853C23.456,31.827,26.15,30.712,29.015,30.712C31.881,30.712,34.574,31.827,36.6,33.853C40.782,38.035,40.782,44.84,36.6,49.022ZM36.6,49.022"/>
</g>
  <g id="Semibold-M" transform="matrix(1.0,0.0,0.0,1.0,2009.32001953125,1055.5400390625)">  <path version="1.1" xmlns:xlink="http://www.w3.org/1999/xlink" fill-rule="nonzero" stroke-width="1px" y="0px" x="0px" stroke="none" stroke-miterlimit="4" fill-opacity="1" stroke-dasharray="none" stroke-linejoin="miter" stroke-linecap="butt" fill="#000000" stroke-opacity="1" xml:space="preserve" d="M66.571,6.977L69.504,4.045L66.408,0.95L63.477,3.88C60.283,1.365,56.364,0,52.234,0C49.498,0,46.755,0.626,44.302,1.811L16.386,15.3C13.462,16.713,10.807,18.602,8.493,20.916C-2.822,32.232,-2.822,50.644,8.493,61.96C13.975,67.441,21.263,70.46,29.015,70.46C36.767,70.46,44.056,67.441,49.537,61.96C51.851,59.647,53.74,56.991,55.153,54.067L68.642,26.151C71.69,19.842,70.82,12.395,66.571,6.977ZM64.7,24.246L51.211,52.162C50.012,54.644,48.407,56.898,46.441,58.864C41.787,63.519,35.598,66.082,29.015,66.082C22.433,66.082,16.244,63.519,11.589,58.864C1.981,49.255,1.981,33.621,11.589,24.012C13.555,22.046,15.81,20.441,18.291,19.242L46.207,5.753C48.069,4.854,50.153,4.378,52.234,4.378C55.932,4.378,59.407,5.818,62.021,8.432C66.183,12.593,67.259,18.949,64.7,24.246ZM64.7,24.246"/>
  <path stroke-miterlimit="4" stroke="none" fill-opacity="1" stroke-width="1px" y="0px" stroke-linecap="butt" fill-rule="nonzero" x="0px" stroke-dasharray="none" version="1.1" xml:space="preserve" fill="#000000" xmlns:xlink="http://www.w3.org/1999/xlink" stroke-opacity="1" stroke-linejoin="miter" d="M29.015,26.333C24.981,26.333,21.188,27.904,18.335,30.757C12.446,36.646,12.446,46.229,18.335,52.118C21.188,54.971,24.981,56.542,29.015,56.542C33.05,56.542,36.843,54.971,39.696,52.118C45.585,46.229,45.585,36.646,39.696,30.757C36.843,27.904,33.05,26.333,29.015,26.333ZM36.6,49.022C34.574,51.048,31.881,52.164,29.015,52.164C26.15,52.164,23.457,51.048,21.431,49.022C17.248,44.84,17.248,38.035,21.431,33.853C23.456,31.827,26.15,30.712,29.015,30.712C31.881,30.712,34.574,31.827,36.6,33.853C40.782,38.035,40.782,44.84,36.6,49.022ZM36.6,49.022"/>
</g>
  <g id="Medium-M" transform="matrix(1.0,0.0,0.0,1.0,1712.61001953125,1055.5400390625)">  <path stroke-linecap="butt" y="0px" stroke-opacity="1" stroke-dasharray="none" version="1.1" stroke-linejoin="miter" stroke="none" fill-rule="nonzero" stroke-width="1px" x="0px" stroke-miterlimit="4" fill="#000000" fill-opacity="1" xml:space="preserve" xmlns:xlink="http://www.w3.org/1999/xlink" d="M66.571,6.977L69.504,4.045L66.408,0.95L63.477,3.88C60.283,1.365,56.364,0,52.234,0C49.498,0,46.755,0.626,44.302,1.811L16.386,15.3C13.462,16.713,10.807,18.602,8.493,20.916C-2.822,32.232,-2.822,50.644,8.493,61.96C13.975,67.441,21.263,70.46,29.015,70.46C36.767,70.46,44.056,67.441,49.537,61.96C51.851,59.647,53.74,56.991,55.153,54.067L68.642,26.151C71.69,19.842,70.82,12.395,66.571,6.977ZM64.7,24.246L51.211,52.162C50.012,54.644,48.407,56.898,46.441,58.864C41.787,63.519,35.598,66.082,29.015,66.082C22.433,66.082,16.244,63.519,11.589,58.864C1.981,49.255,1.981,33.621,11.589,24.012C13.555,22.046,15.81,20.441,18.291,19.242L46.207,5.753C48.069,4.854,50.153,4.378,52.234,4.378C55.932,4.378,59.407,5.818,62.021,8.432C66.183,12.593,67.259,18.949,64.7,24.246ZM64.7,24.246"/>
  <path stroke-width="1px" y="0px" stroke-linejoin="miter" stroke="none" stroke-linecap="butt" fill="#000000" stroke-opacity="1" stroke-dasharray="none" stroke-miterlimit="4" version="1.1" xmlns:xlink="http://www.w3.org/1999/xlink" fill-rule="nonzero" x="0px" fill-opacity="1" xml:space="preserve" d="M29.015,26.333C24.981,26.333,21.188,27.904,18.335,30.757C12.446,36.646,12.446,46.229,18.335,52.118C21.188,54.971,24.981,56.542,29.015,56.542C33.05,56.542,36.843,54.971,39.696,52.118C45.585,46.229,45.585,36.646,39.696,30.757C36.843,27.904,33.05,26.333,29.015,26.333ZM36.6,49.022C34.574,51.048,31.881,52.164,29.015,52.164C26.15,52.164,23.457,51.048,21.431,49.022C17.248,44.84,17.248,38.035,21.431,33.853C23.456,31.827,26.15,30.712,29.015,30.712C31.881,30.712,34.574,31.827,36.6,33.853C40.782,38.035,40.782,44.84,36.6,49.022ZM36.6,49.022"/>
</g>
  <g id="Regular-M" transform="matrix(1.0,0.0,0.0,1.0,1415.9000195312499,1055.5400390625)">  <path stroke-opacity="1" stroke-dasharray="none" stroke-linejoin="miter" fill-rule="nonzero" stroke-miterlimit="4" version="1.1" xml:space="preserve" fill="#000000" xmlns:xlink="http://www.w3.org/1999/xlink" stroke="none" x="0px" stroke-linecap="butt" fill-opacity="1" y="0px" stroke-width="1px" d="M66.571,6.977L69.504,4.045L66.408,0.95L63.477,3.88C60.283,1.365,56.364,0,52.234,0C49.498,0,46.755,0.626,44.302,1.811L16.386,15.3C13.462,16.713,10.807,18.602,8.493,20.916C-2.822,32.232,-2.822,50.644,8.493,61.96C13.975,67.441,21.263,70.46,29.015,70.46C36.767,70.46,44.056,67.441,49.537,61.96C51.851,59.647,53.74,56.991,55.153,54.067L68.642,26.151C71.69,19.842,70.82,12.395,66.571,6.977ZM64.7,24.246L51.211,52.162C50.012,54.644,48.407,56.898,46.441,58.864C41.787,63.519,35.598,66.082,29.015,66.082C22.433,66.082,16.244,63.519,11.589,58.864C1.981,49.255,1.981,33.621,11.589,24.012C13.555,22.046,15.81,20.441,18.291,19.242L46.207,5.753C48.069,4.854,50.153,4.378,52.234,4.378C55.932,4.378,59.407,5.818,62.021,8.432C66.183,12.593,67.259,18.949,64.7,24.246ZM64.7,24.246"/>
  <path stroke-miterlimit="4" x="0px" stroke-linejoin="miter" y="0px" stroke-dasharray="none" stroke-linecap="butt" stroke="none" fill-rule="nonzero" fill="#000000" xml:space="preserve" stroke-width="1px" fill-opacity="1" xmlns:xlink="http://www.w3.org/1999/xlink" version="1.1" stroke-opacity="1" d="M29.015,26.333C24.981,26.333,21.188,27.904,18.335,30.757C12.446,36.646,12.446,46.229,18.335,52.118C21.188,54.971,24.981,56.542,29.015,56.542C33.05,56.542,36.843,54.971,39.696,52.118C45.585,46.229,45.585,36.646,39.696,30.757C36.843,27.904,33.05,26.333,29.015,26.333ZM36.6,49.022C34.574,51.048,31.881,52.164,29.015,52.164C26.15,52.164,23.457,51.048,21.431,49.022C17.248,44.84,17.248,38.035,21.431,33.853C23.456,31.827,26.15,30.712,29.015,30.712C31.881,30.712,34.574,31.827,36.6,33.853C40.782,38.035,40.782,44.84,36.6,49.022ZM36.6,49.022"/>
</g>
  <g id="Light-M" transform="matrix(1.0,0.0,0.0,1.0,1119.19001953125,1055.5400390625)">  <path x="0px" stroke-dasharray="none" stroke="none" stroke-linecap="butt" stroke-linejoin="miter" y="0px" fill="#000000" version="1.1" fill-opacity="1" xmlns:xlink="http://www.w3.org/1999/xlink" stroke-opacity="1" stroke-width="1px" stroke-miterlimit="4" xml:space="preserve" fill-rule="nonzero" d="M66.571,6.977L69.504,4.045L66.408,0.95L63.477,3.88C60.283,1.365,56.364,0,52.234,0C49.498,0,46.755,0.626,44.302,1.811L16.386,15.3C13.462,16.713,10.807,18.602,8.493,20.916C-2.822,32.232,-2.822,50.644,8.493,61.96C13.975,67.441,21.263,70.46,29.015,70.46C36.767,70.46,44.056,67.441,49.537,61.96C51.851,59.647,53.74,56.991,55.153,54.067L68.642,26.151C71.69,19.842,70.82,12.395,66.571,6.977ZM64.7,24.246L51.211,52.162C50.012,54.644,48.407,56.898,46.441,58.864C41.787,63.519,35.598,66.082,29.015,66.082C22.433,66.082,16.244,63.519,11.589,58.864C1.981,49.255,1.981,33.621,11.589,24.012C13.555,22.046,15.81,20.441,18.291,19.242L46.207,5.753C48.069,4.854,50.153,4.378,52.234,4.378C55.932,4.378,59.407,5.818,62.021,8.432C66.183,12.593,67.259,18.949,64.7,24.246ZM64.7,24.246"/>
  <path stroke-width="1px" fill="#000000" fill-opacity="1" version="1.1" x="0px" stroke-opacity="1" stroke-miterlimit="4" stroke-linejoin="miter" stroke="none" stroke-linecap="butt" y="0px" xml:space="preserve" stroke-dasharray="none" fill-rule="nonzero" xmlns:xlink="http://www.w3.org/1999/xlink" d="M29.015,26.333C24.981,26.333,21.188,27.904,18.335,30.757C12.446,36.646,12.446,46.229,18.335,52.118C21.188,54.971,24.981,56.542,29.015,56.542C33.05,56.542,36.843,54.971,39.696,52.118C45.585,46.229,45.585,36.646,39.696,30.757C36.843,27.904,33.05,26.333,29.015,26.333ZM36.6,49.022C34.574,51.048,31.881,52.164,29.015,52.164C26.15,52.164,23.457,51.048,21.431,49.022C17.248,44.84,17.248,38.035,21.431,33.853C23.456,31.827,26.15,30.712,29.015,30.712C31.881,30.712,34.574,31.827,36.6,33.853C40.782,38.035,40.782,44.84,36.6,49.022ZM36.6,49.022"/>
</g>
  <g id="Thin-M" transform="matrix(1.0,0.0,0.0,1.0,822.48001953125,1055.5400390625)">  <path y="0px" stroke-linecap="butt" stroke-width="1px" fill-opacity="1" xml:space="preserve" stroke="none" version="1.1" stroke-linejoin="miter" fill="#000000" fill-rule="nonzero" stroke-miterlimit="4" xmlns:xlink="http://www.w3.org/1999/xlink" x="0px" stroke-dasharray="none" stroke-opacity="1" d="M66.571,6.977L69.504,4.045L66.408,0.95L63.477,3.88C60.283,1.365,56.364,0,52.234,0C49.498,0,46.755,0.626,44.302,1.811L16.386,15.3C13.462,16.713,10.807,18.602,8.493,20.916C-2.822,32.232,-2.822,50.644,8.493,61.96C13.975,67.441,21.263,70.46,29.015,70.46C36.767,70.46,44.056,67.441,49.537,61.96C51.851,59.647,53.74,56.991,55.153,54.067L68.642,26.151C71.69,19.842,70.82,12.395,66.571,6.977ZM64.7,24.246L51.211,52.162C50.012,54.644,48.407,56.898,46.441,58.864C41.787,63.519,35.598,66.082,29.015,66.082C22.433,66.082,16.244,63.519,11.589,58.864C1.981,49.255,1.981,33.621,11.589,24.012C13.555,22.046,15.81,20.441,18.291,19.242L46.207,5.753C48.069,4.854,50.153,4.378,52.234,4.378C55.932,4.378,59.407,5.818,62.021,8.432C66.183,12.593,67.259,18.949,64.7,24.246ZM64.7,24.246"/>
  <path fill="#000000" stroke-linecap="butt" stroke-opacity="1" stroke-linejoin="miter" x="0px" version="1.1" stroke-width="1px" fill-opacity="1" xmlns:xlink="http://www.w3.org/1999/xlink" xml:space="preserve" stroke-dasharray="none" y="0px" stroke="none" stroke-miterlimit="4" fill-rule="nonzero" d="M29.015,26.333C24.981,26.333,21.188,27.904,18.335,30.757C12.446,36.646,12.446,46.229,18.335,52.118C21.188,54.971,24.981,56.542,29.015,56.542C33.05,56.542,36.843,54.971,39.696,52.118C45.585,46.229,45.585,36.646,39.696,30.757C36.843,27.904,33.05,26.333,29.015,26.333ZM36.6,49.022C34.574,51.048,31.881,52.164,29.015,52.164C26.15,52.164,23.457,51.048,21.431,49.022C17.248,44.84,17.248,38.035,21.431,33.853C23.456,31.827,26.15,30.712,29.015,30.712C31.881,30.712,34.574,31.827,36.6,33.853C40.782,38.035,40.782,44.84,36.6,49.022ZM36.6,49.022"/>
</g>
  <g id="Ultralight-M" transform="matrix(1.0,0.0,0.0,1.0,525.77001953125,1055.5400390625)">  <path x="0px" stroke-linecap="butt" fill-opacity="1" stroke-miterlimit="4" xml:space="preserve" stroke-width="1px" stroke="none" stroke-dasharray="none" fill="#000000" xmlns:xlink="http://www.w3.org/1999/xlink" stroke-linejoin="miter" version="1.1" fill-rule="nonzero" stroke-opacity="1" y="0px" d="M66.571,6.977L69.504,4.045L66.408,0.95L63.477,3.88C60.283,1.365,56.364,0,52.234,0C49.498,0,46.755,0.626,44.302,1.811L16.386,15.3C13.462,16.713,10.807,18.602,8.493,20.916C-2.822,32.232,-2.822,50.644,8.493,61.96C13.975,67.441,21.263,70.46,29.015,70.46C36.767,70.46,44.056,67.441,49.537,61.96C51.851,59.647,53.74,56.991,55.153,54.067L68.642,26.151C71.69,19.842,70.82,12.395,66.571,6.977ZM64.7,24.246L51.211,52.162C50.012,54.644,48.407,56.898,46.441,58.864C41.787,63.519,35.598,66.082,29.015,66.082C22.433,66.082,16.244,63.519,11.589,58.864C1.981,49.255,1.981,33.621,11.589,24.012C13.555,22.046,15.81,20.441,18.291,19.242L46.207,5.753C48.069,4.854,50.153,4.378,52.234,4.378C55.932,4.378,59.407,5.818,62.021,8.432C66.183,12.593,67.259,18.949,64.7,24.246ZM64.7,24.246"/>
  <path stroke-width="1px" fill-opacity="1" y="0px" version="1.1" xml:space="preserve" stroke-opacity="1" stroke-linecap="butt" stroke-miterlimit="4" fill-rule="nonzero" fill="#000000" stroke-dasharray="none" x="0px" stroke-linejoin="miter" xmlns:xlink="http://www.w3.org/1999/xlink" stroke="none" d="M29.015,26.333C24.981,26.333,21.188,27.904,18.335,30.757C12.446,36.646,12.446,46.229,18.335,52.118C21.188,54.971,24.981,56.542,29.015,56.542C33.05,56.542,36.843,54.971,39.696,52.118C45.585,46.229,45.585,36.646,39.696,30.757C36.843,27.904,33.05,26.333,29.015,26.333ZM36.6,49.022C34.574,51.048,31.881,52.164,29.015,52.164C26.15,52.164,23.457,51.048,21.431,49.022C17.248,44.84,17.248,38.035,21.431,33.853C23.456,31.827,26.15,30.712,29.015,30.712C31.881,30.712,34.574,31.827,36.6,33.853C40.782,38.035,40.782,44.84,36.6,49.022ZM36.6,49.022"/>
</g>
  <g id="Black-S" transform="matrix(1.0,0.0,0.0,1.0,2907.0949252929686,633.1849448242187)">  <path stroke-miterlimit="4" y="0px" stroke-linejoin="miter" version="1.1" xmlns:xlink="http://www.w3.org/1999/xlink" fill-rule="nonzero" fill-opacity="1" stroke-dasharray="none" stroke-linecap="butt" x="0px" xml:space="preserve" stroke-width="1px" stroke-opacity="1" stroke="none" fill="#000000" d="M52.125,5.463L54.421,3.168L51.997,0.744L49.703,3.038C47.201,1.069,44.133,0,40.899,0C38.757,0,36.609,0.49,34.689,1.418L12.83,11.98C10.541,13.086,8.462,14.566,6.65,16.377C-2.21,25.237,-2.21,39.654,6.65,48.514C10.943,52.807,16.649,55.17,22.719,55.17C28.789,55.17,34.496,52.807,38.788,48.514C40.599,46.703,42.078,44.624,43.185,42.335L53.747,20.476C56.133,15.537,55.452,9.705,52.125,5.463ZM50.66,18.985L40.098,40.843C39.159,42.786,37.903,44.551,36.364,46.091C32.719,49.735,27.873,51.742,22.719,51.742C17.565,51.742,12.719,49.735,9.074,46.091C1.551,38.567,1.551,26.325,9.074,18.801C10.614,17.262,12.379,16.006,14.322,15.067L36.18,4.505C37.638,3.8,39.27,3.428,40.899,3.428C43.794,3.428,46.516,4.555,48.563,6.602C51.821,9.86,52.664,14.837,50.66,18.985ZM50.66,18.985"/>
  <path fill="#000000" version="1.1" xmlns:xlink="http://www.w3.org/1999/xlink" stroke-linejoin="miter" y="0px" stroke-opacity="1" xml:space="preserve" stroke-width="1px" fill-rule="nonzero" stroke-linecap="butt" x="0px" stroke-miterlimit="4" stroke-dasharray="none" stroke="none" fill-opacity="1" d="M22.719,20.619C19.56,20.619,16.59,21.849,14.356,24.083C9.745,28.694,9.745,36.197,14.356,40.808C16.59,43.042,19.56,44.273,22.719,44.273C25.878,44.273,28.848,43.042,31.082,40.808C35.693,36.197,35.693,28.694,31.082,24.083C28.848,21.849,25.878,20.619,22.719,20.619ZM28.658,38.385C27.072,39.971,24.962,40.845,22.719,40.845C20.476,40.845,18.367,39.971,16.78,38.385C13.505,35.11,13.505,29.782,16.78,26.507C18.366,24.921,20.476,24.047,22.719,24.047C24.962,24.047,27.071,24.921,28.658,26.507C31.932,29.782,31.932,35.11,28.658,38.385ZM28.658,38.385"/>
</g>
  <g id="Heavy-S" transform="matrix(1.0,0.0,0.0,1.0,2610.3849252929685,633.1849448242187)">  <path xml:space="preserve" stroke-width="1px" y="0px" fill="#000000" fill-opacity="1" x="0px" stroke-linecap="butt" version="1.1" xmlns:xlink="http://www.w3.org/1999/xlink" fill-rule="nonzero" stroke-miterlimit="4" stroke="none" stroke-dasharray="none" stroke-opacity="1" stroke-linejoin="miter" d="M52.125,5.463L54.421,3.168L51.997,0.744L49.703,3.038C47.201,1.069,44.133,0,40.899,0C38.757,0,36.609,0.49,34.689,1.418L12.83,11.98C10.541,13.086,8.462,14.566,6.65,16.377C-2.21,25.237,-2.21,39.654,6.65,48.514C10.943,52.807,16.649,55.17,22.719,55.17C28.789,55.17,34.496,52.807,38.788,48.514C40.599,46.703,42.078,44.624,43.185,42.335L53.747,20.476C56.133,15.537,55.452,9.705,52.125,5.463ZM50.66,18.985L40.098,40.843C39.159,42.786,37.903,44.551,36.364,46.091C32.719,49.735,27.873,51.742,22.719,51.742C17.565,51.742,12.719,49.735,9.074,46.091C1.551,38.567,1.551,26.325,9.074,18.801C10.614,17.262,12.379,16.006,14.322,15.067L36.18,4.505C37.638,3.8,39.27,3.428,40.899,3.428C43.794,3.428,46.516,4.555,48.563,6.602C51.821,9.86,52.664,14.837,50.66,18.985ZM50.66,18.985"/>
  <path y="0px" stroke-opacity="1" version="1.1" stroke-linejoin="miter" xmlns:xlink="http://www.w3.org/1999/xlink" stroke-width="1px" xml:space="preserve" x="0px" stroke-dasharray="none" stroke-linecap="butt" stroke-miterlimit="4" stroke="none" fill-rule="nonzero" fill="#000000" fill-opacity="1" d="M22.719,20.619C19.56,20.619,16.59,21.849,14.356,24.083C9.745,28.694,9.745,36.197,14.356,40.808C16.59,43.042,19.56,44.273,22.719,44.273C25.878,44.273,28.848,43.042,31.082,40.808C35.693,36.197,35.693,28.694,31.082,24.083C28.848,21.849,25.878,20.619,22.719,20.619ZM28.658,38.385C27.072,39.971,24.962,40.845,22.719,40.845C20.476,40.845,18.367,39.971,16.78,38.385C13.505,35.11,13.505,29.782,16.78,26.507C18.366,24.921,20.476,24.047,22.719,24.047C24.962,24.047,27.071,24.921,28.658,26.507C31.932,29.782,31.932,35.11,28.658,38.385ZM28.658,38.385"/>
</g>
  <g id="Bold-S" transform="matrix(1.0,0.0,0.0,1.0,2313.6749252929685,633.1849448242187)">  <path stroke-miterlimit="4" stroke-dasharray="none" version="1.1" xml:space="preserve" stroke="none" xmlns:xlink="http://www.w3.org/1999/xlink" fill="#000000" stroke-linejoin="miter" fill-opacity="1" stroke-width="1px" stroke-linecap="butt" y="0px" stroke-opacity="1" fill-rule="nonzero" x="0px" d="M52.125,5.463L54.421,3.168L51.997,0.744L49.703,3.038C47.201,1.069,44.133,0,40.899,0C38.757,0,36.609,0.49,34.689,1.418L12.83,11.98C10.541,13.086,8.462,14.566,6.65,16.377C-2.21,25.237,-2.21,39.654,6.65,48.514C10.943,52.807,16.649,55.17,22.719,55.17C28.789,55.17,34.496,52.807,38.788,48.514C40.599,46.703,42.078,44.624,43.185,42.335L53.747,20.476C56.133,15.537,55.452,9.705,52.125,5.463ZM50.66,18.985L40.098,40.843C39.159,42.786,37.903,44.551,36.364,46.091C32.719,49.735,27.873,51.742,22.719,51.742C17.565,51.742,12.719,49.735,9.074,46.091C1.551,38.567,1.551,26.325,9.074,18.801C10.614,17.262,12.379,16.006,14.322,15.067L36.18,4.505C37.638,3.8,39.27,3.428,40.899,3.428C43.794,3.428,46.516,4.555,48.563,6.602C51.821,9.86,52.664,14.837,50.66,18.985ZM50.66,18.985"/>
  <path stroke-width="1px" stroke-linecap="butt" stroke="none" fill="#000000" stroke-linejoin="miter" xmlns:xlink="http://www.w3.org/1999/xlink" stroke-dasharray="none" fill-rule="nonzero" xml:space="preserve" x="0px" version="1.1" stroke-opacity="1" fill-opacity="1" y="0px" stroke-miterlimit="4" d="M22.719,20.619C19.56,20.619,16.59,21.849,14.356,24.083C9.745,28.694,9.745,36.197,14.356,40.808C16.59,43.042,19.56,44.273,22.719,44.273C25.878,44.273,28.848,43.042,31.082,40.808C35.693,36.197,35.693,28.694,31.082,24.083C28.848,21.849,25.878,20.619,22.719,20.619ZM28.658,38.385C27.072,39.971,24.962,40.845,22.719,40.845C20.476,40.845,18.367,39.971,16.78,38.385C13.505,35.11,13.505,29.782,16.78,26.507C18.366,24.921,20.476,24.047,22.719,24.047C24.962,24.047,27.071,24.921,28.658,26.507C31.932,29.782,31.932,35.11,28.658,38.385ZM28.658,38.385"/>
</g>
  <g id="Semibold-S" transform="matrix(1.0,0.0,0.0,1.0,2016.9649252929687,633.1849448242187)">  <path version="1.1" xmlns:xlink="http://www.w3.org/1999/xlink" fill-rule="nonzero" stroke-width="1px" y="0px" x="0px" stroke="none" stroke-miterlimit="4" fill-opacity="1" stroke-dasharray="none" stroke-linejoin="miter" stroke-linecap="butt" fill="#000000" stroke-opacity="1" xml:space="preserve" d="M52.125,5.463L54.421,3.168L51.997,0.744L49.703,3.038C47.201,1.069,44.133,0,40.899,0C38.757,0,36.609,0.49,34.689,1.418L12.83,11.98C10.541,13.086,8.462,14.566,6.65,16.377C-2.21,25.237,-2.21,39.654,6.65,48.514C10.943,52.807,16.649,55.17,22.719,55.17C28.789,55.17,34.496,52.807,38.788,48.514C40.599,46.703,42.078,44.624,43.185,42.335L53.747,20.476C56.133,15.537,55.452,9.705,52.125,5.463ZM50.66,18.985L40.098,40.843C39.159,42.786,37.903,44.551,36.364,46.091C32.719,49.735,27.873,51.742,22.719,51.742C17.565,51.742,12.719,49.735,9.074,46.091C1.551,38.567,1.551,26.325,9.074,18.801C10.614,17.262,12.379,16.006,14.322,15.067L36.18,4.505C37.638,3.8,39.27,3.428,40.899,3.428C43.794,3.428,46.516,4.555,48.563,6.602C51.821,9.86,52.664,14.837,50.66,18.985ZM50.66,18.985"/>
  <path stroke-miterlimit="4" stroke="none" fill-opacity="1" stroke-width="1px" y="0px" stroke-linecap="butt" fill-rule="nonzero" x="0px" stroke-dasharray="none" version="1.1" xml:space="preserve" fill="#000000" xmlns:xlink="http://www.w3.org/1999/xlink" stroke-opacity="1" stroke-linejoin="miter" d="M22.719,20.619C19.56,20.619,16.59,21.849,14.356,24.083C9.745,28.694,9.745,36.197,14.356,40.808C16.59,43.042,19.56,44.273,22.719,44.273C25.878,44.273,28.848,43.042,31.082,40.808C35.693,36.197,35.693,28.694,31.082,24.083C28.848,21.849,25.878,20.619,22.719,20.619ZM28.658,38.385C27.072,39.971,24.962,40.845,22.719,40.845C20.476,40.845,18.367,39.971,16.78,38.385C13.505,35.11,13.505,29.782,16.78,26.507C18.366,24.921,20.476,24.047,22.719,24.047C24.962,24.047,27.071,24.921,28.658,26.507C31.932,29.782,31.932,35.11,28.658,38.385ZM28.658,38.385"/>
</g>
  <g id="Medium-S" transform="matrix(1.0,0.0,0.0,1.0,1720.2549252929687,633.1849448242187)">  <path stroke-linecap="butt" y="0px" stroke-opacity="1" stroke-dasharray="none" version="1.1" stroke-linejoin="miter" stroke="none" fill-rule="nonzero" stroke-width="1px" x="0px" stroke-miterlimit="4" fill="#000000" fill-opacity="1" xml:space="preserve" xmlns:xlink="http://www.w3.org/1999/xlink" d="M52.125,5.463L54.421,3.168L51.997,0.744L49.703,3.038C47.201,1.069,44.133,0,40.899,0C38.757,0,36.609,0.49,34.689,1.418L12.83,11.98C10.541,13.086,8.462,14.566,6.65,16.377C-2.21,25.237,-2.21,39.654,6.65,48.514C10.943,52.807,16.649,55.17,22.719,55.17C28.789,55.17,34.496,52.807,38.788,48.514C40.599,46.703,42.078,44.624,43.185,42.335L53.747,20.476C56.133,15.537,55.452,9.705,52.125,5.463ZM50.66,18.985L40.098,40.843C39.159,42.786,37.903,44.551,36.364,46.091C32.719,49.735,27.873,51.742,22.719,51.742C17.565,51.742,12.719,49.735,9.074,46.091C1.551,38.567,1.551,26.325,9.074,18.801C10.614,17.262,12.379,16.006,14.322,15.067L36.18,4.505C37.638,3.8,39.27,3.428,40.899,3.428C43.794,3.428,46.516,4.555,48.563,6.602C51.821,9.86,52.664,14.837,50.66,18.985ZM50.66,18.985"/>
  <path stroke-width="1px" y="0px" stroke-linejoin="miter" stroke="none" stroke-linecap="butt" fill="#000000" stroke-opacity="1" stroke-dasharray="none" stroke-miterlimit="4" version="1.1" xmlns:xlink="http://www.w3.org/1999/xlink" fill-rule="nonzero" x="0px" fill-opacity="1" xml:space="preserve" d="M22.719,20.619C19.56,20.619,16.59,21.849,14.356,24.083C9.745,28.694,9.745,36.197,14.356,40.808C16.59,43.042,19.56,44.273,22.719,44.273C25.878,44.273,28.848,43.042,31.082,40.808C35.693,36.197,35.693,28.694,31.082,24.083C28.848,21.849,25.878,20.619,22.719,20.619ZM28.658,38.385C27.072,39.971,24.962,40.845,22.719,40.845C20.476,40.845,18.367,39.971,16.78,38.385C13.505,35.11,13.505,29.782,16.78,26.507C18.366,24.921,20.476,24.047,22.719,24.047C24.962,24.047,27.071,24.921,28.658,26.507C31.932,29.782,31.932,35.11,28.658,38.385ZM28.658,38.385"/>
</g>
  <g id="Regular-S" transform="matrix(1.0,0.0,0.0,1.0,1423.5449252929686,633.1849448242187)">  <path stroke-opacity="1" stroke-dasharray="none" stroke-linejoin="miter" fill-rule="nonzero" stroke-miterlimit="4" version="1.1" xml:space="preserve" fill="#000000" xmlns:xlink="http://www.w3.org/1999/xlink" stroke="none" x="0px" stroke-linecap="butt" fill-opacity="1" y="0px" stroke-width="1px" d="M52.125,5.463L54.421,3.168L51.997,0.744L49.703,3.038C47.201,1.069,44.133,0,40.899,0C38.757,0,36.609,0.49,34.689,1.418L12.83,11.98C10.541,13.086,8.462,14.566,6.65,16.377C-2.21,25.237,-2.21,39.654,6.65,48.514C10.943,52.807,16.649,55.17,22.719,55.17C28.789,55.17,34.496,52.807,38.788,48.514C40.599,46.703,42.078,44.624,43.185,42.335L53.747,20.476C56.133,15.537,55.452,9.705,52.125,5.463ZM50.66,18.985L40.098,40.843C39.159,42.786,37.903,44.551,36.364,46.091C32.719,49.735,27.873,51.742,22.719,51.742C17.565,51.742,12.719,49.735,9.074,46.091C1.551,38.567,1.551,26.325,9.074,18.801C10.614,17.262,12.379,16.006,14.322,15.067L36.18,4.505C37.638,3.8,39.27,3.428,40.899,3.428C43.794,3.428,46.516,4.555,48.563,6.602C51.821,9.86,52.664,14.837,50.66,18.985ZM50.66,18.985"/>
  <path stroke-miterlimit="4" x="0px" stroke-linejoin="miter" y="0px" stroke-dasharray="none" stroke-linecap="butt" stroke="none" fill-rule="nonzero" fill="#000000" xml:space="preserve" stroke-width="1px" fill-opacity="1" xmlns:xlink="http://www.w3.org/1999/xlink" version="1.1" stroke-opacity="1" d="M22.719,20.619C19.56,20.619,16.59,21.849,14.356,24.083C9.745,28.694,9.745,36.197,14.356,40.808C16.59,43.042,19.56,44.273,22.719,44.273C25.878,44.273,28.848,43.042,31.082,40.808C35.693,36.197,35.693,28.694,31.082,24.083C28.848,21.849,25.878,20.619,22.719,20.619ZM28.658,38.385C27.072,39.971,24.962,40.845,22.719,40.845C20.476,40.845,18.367,39.971,16.78,38.385C13.505,35.11,13.505,29.782,16.78,26.507C18.366,24.921,20.476,24.047,22.719,24.047C24.962,24.047,27.071,24.921,28.658,26.507C31.932,29.782,31.932,35.11,28.658,38.385ZM28.658,38.385"/>
</g>
  <g id="Light-S" transform="matrix(1.0,0.0,0.0,1.0,1126.8349252929688,633.1849448242187)">  <path x="0px" stroke-dasharray="none" stroke="none" stroke-linecap="butt" stroke-linejoin="miter" y="0px" fill="#000000" version="1.1" fill-opacity="1" xmlns:xlink="http://www.w3.org/1999/xlink" stroke-opacity="1" stroke-width="1px" stroke-miterlimit="4" xml:space="preserve" fill-rule="nonzero" d="M52.125,5.463L54.421,3.168L51.997,0.744L49.703,3.038C47.201,1.069,44.133,0,40.899,0C38.757,0,36.609,0.49,34.689,1.418L12.83,11.98C10.541,13.086,8.462,14.566,6.65,16.377C-2.21,25.237,-2.21,39.654,6.65,48.514C10.943,52.807,16.649,55.17,22.719,55.17C28.789,55.17,34.496,52.807,38.788,48.514C40.599,46.703,42.078,44.624,43.185,42.335L53.747,20.476C56.133,15.537,55.452,9.705,52.125,5.463ZM50.66,18.985L40.098,40.843C39.159,42.786,37.903,44.551,36.364,46.091C32.719,49.735,27.873,51.742,22.719,51.742C17.565,51.742,12.719,49.735,9.074,46.091C1.551,38.567,1.551,26.325,9.074,18.801C10.614,17.262,12.379,16.006,14.322,15.067L36.18,4.505C37.638,3.8,39.27,3.428,40.899,3.428C43.794,3.428,46.516,4.555,48.563,6.602C51.821,9.86,52.664,14.837,50.66,18.985ZM50.66,18.985"/>
  <path stroke-width="1px" fill="#000000" fill-opacity="1" version="1.1" x="0px" stroke-opacity="1" stroke-miterlimit="4" stroke-linejoin="miter" stroke="none" stroke-linecap="butt" y="0px" xml:space="preserve" stroke-dasharray="none" fill-rule="nonzero" xmlns:xlink="http://www.w3.org/1999/xlink" d="M22.719,20.619C19.56,20.619,16.59,21.849,14.356,24.083C9.745,28.694,9.745,36.197,14.356,40.808C16.59,43.042,19.56,44.273,22.719,44.273C25.878,44.273,28.848,43.042,31.082,40.808C35.693,36.197,35.693,28.694,31.082,24.083C28.848,21.849,25.878,20.619,22.719,20.619ZM28.658,38.385C27.072,39.971,24.962,40.845,22.719,40.845C20.476,40.845,18.367,39.971,16.78,38.385C13.505,35.11,13.505,29.782,16.78,26.507C18.366,24.921,20.476,24.047,22.719,24.047C24.962,24.047,27.071,24.921,28.658,26.507C31.932,29.782,31.932,35.11,28.658,38.385ZM28.658,38.385"/>
</g>
  <g id="Thin-S" transform="matrix(1.0,0.0,0.0,1.0,830.1249252929688,633.1849448242187)">  <path y="0px" stroke-linecap="butt" stroke-width="1px" fill-opacity="1" xml:space="preserve" stroke="none" version="1.1" stroke-linejoin="miter" fill="#000000" fill-rule="nonzero" stroke-miterlimit="4" xmlns:xlink="http://www.w3.org/1999/xlink" x="0px" stroke-dasharray="none" stroke-opacity="1" d="M52.125,5.463L54.421,3.168L51.997,0.744L49.703,3.038C47.201,1.069,44.133,0,40.899,0C38.757,0,36.609,0.49,34.689,1.418L12.83,11.98C10.541,13.086,8.462,14.566,6.65,16.377C-2.21,25.237,-2.21,39.654,6.65,48.514C10.943,52.807,16.649,55.17,22.719,55.17C28.789,55.17,34.496,52.807,38.788,48.514C40.599,46.703,42.078,44.624,43.185,42.335L53.747,20.476C56.133,15.537,55.452,9.705,52.125,5.463ZM50.66,18.985L40.098,40.843C39.159,42.786,37.903,44.551,36.364,46.091C32.719,49.735,27.873,51.742,22.719,51.742C17.565,51.742,12.719,49.735,9.074,46.091C1.551,38.567,1.551,26.325,9.074,18.801C10.614,17.262,12.379,16.006,14.322,15.067L36.18,4.505C37.638,3.8,39.27,3.428,40.899,3.428C43.794,3.428,46.516,4.555,48.563,6.602C51.821,9.86,52.664,14.837,50.66,18.985ZM50.66,18.985"/>
  <path fill="#000000" stroke-linecap="butt" stroke-opacity="1" stroke-linejoin="miter" x="0px" version="1.1" stroke-width="1px" fill-opacity="1" xmlns:xlink="http://www.w3.org/1999/xlink" xml:space="preserve" stroke-dasharray="none" y="0px" stroke="none" stroke-miterlimit="4" fill-rule="nonzero" d="M22.719,20.619C19.56,20.619,16.59,21.849,14.356,24.083C9.745,28.694,9.745,36.197,14.356,40.808C16.59,43.042,19.56,44.273,22.719,44.273C25.878,44.273,28.848,43.042,31.082,40.808C35.693,36.197,35.693,28.694,31.082,24.083C28.848,21.849,25.878,20.619,22.719,20.619ZM28.658,38.385C27.072,39.971,24.962,40.845,22.719,40.845C20.476,40.845,18.367,39.971,16.78,38.385C13.505,35.11,13.505,29.782,16.78,26.507C18.366,24.921,20.476,24.047,22.719,24.047C24.962,24.047,27.071,24.921,28.658,26.507C31.932,29.782,31.932,35.11,28.658,38.385ZM28.658,38.385"/>
</g>
  <g id="Ultralight-S" transform="matrix(1.0,0.0,0.0,1.0,533.4149252929687,633.1849448242187)">  <path x="0px" stroke-linecap="butt" fill-opacity="1" stroke-miterlimit="4" xml:space="preserve" stroke-width="1px" stroke="none" stroke-dasharray="none" fill="#000000" xmlns:xlink="http://www.w3.org/1999/xlink" stroke-linejoin="miter" version="1.1" fill-rule="nonzero" stroke-opacity="1" y="0px" d="M52.125,5.463L54.421,3.168L51.997,0.744L49.703,3.038C47.201,1.069,44.133,0,40.899,0C38.757,0,36.609,0.49,34.689,1.418L12.83,11.98C10.541,13.086,8.462,14.566,6.65,16.377C-2.21,25.237,-2.21,39.654,6.65,48.514C10.943,52.807,16.649,55.17,22.719,55.17C28.789,55.17,34.496,52.807,38.788,48.514C40.599,46.703,42.078,44.624,43.185,42.335L53.747,20.476C56.133,15.537,55.452,9.705,52.125,5.463ZM50.66,18.985L40.098,40.843C39.159,42.786,37.903,44.551,36.364,46.091C32.719,49.735,27.873,51.742,22.719,51.742C17.565,51.742,12.719,49.735,9.074,46.091C1.551,38.567,1.551,26.325,9.074,18.801C10.614,17.262,12.379,16.006,14.322,15.067L36.18,4.505C37.638,3.8,39.27,3.428,40.899,3.428C43.794,3.428,46.516,4.555,48.563,6.602C51.821,9.86,52.664,14.837,50.66,18.985ZM50.66,18.985"/>
  <path stroke-width="1px" fill-opacity="1" y="0px" version="1.1" xml:space="preserve" stroke-opacity="1" stroke-linecap="butt" stroke-miterlimit="4" fill-rule="nonzero" fill="#000000" stroke-dasharray="none" x="0px" stroke-linejoin="miter" xmlns:xlink="http://www.w3.org/1999/xlink" stroke="none" d="M22.719,20.619C19.56,20.619,16.59,21.849,14.356,24.083C9.745,28.694,9.745,36.197,14.356,40.808C16.59,43.042,19.56,44.273,22.719,44.273C25.878,44.273,28.848,43.042,31.082,40.808C35.693,36.197,35.693,28.694,31.082,24.083C28.848,21.849,25.878,20.619,22.719,20.619ZM28.658,38.385C27.072,39.971,24.962,40.845,22.719,40.845C20.476,40.845,18.367,39.971,16.78,38.385C13.505,35.11,13.505,29.782,16.78,26.507C18.366,24.921,20.476,24.047,22.719,24.047C24.962,24.047,27.071,24.921,28.658,26.507C31.932,29.782,31.932,35.11,28.658,38.385ZM28.658,38.385"/>
</g>
 </g>
</svg>
